<svg xmlns="http://www.w3.org/2000/svg" xmlns:xlink="http://www.w3.org/1999/xlink" viewBox="0 0 1622.26 356.95"><defs><style>.cls-1,.cls-6{fill:none;}.cls-2{clip-path:url(#clip-path);}.cls-3{fill:#1b203c;}.cls-4{fill:#bac5cf;}.cls-5{fill:#fff;}.cls-6{stroke:#1b203c;stroke-miterlimit:10;stroke-width:0.5px;}</style><clipPath id="clip-path"><circle class="cls-1" cx="196.74" cy="178.48" r="178.48" transform="translate(-68.58 191.39) rotate(-45)"/></clipPath></defs><g id="Logo_no_text" data-name="Logo no text"><g class="cls-2"><circle class="cls-3" cx="196.74" cy="178.48" r="178.48" transform="translate(-68.58 191.39) rotate(-45)"/><path class="cls-4" d="M196.33,136.93a2.72,2.72,0,0,1-2.71-2.71,44.86,44.86,0,0,1,44.81-44.81h58a30.8,30.8,0,1,0,0-61.6,2.72,2.72,0,0,1,0-5.43,36.23,36.23,0,1,1,0,72.46h-58a39.42,39.42,0,0,0-39.38,39.38A2.72,2.72,0,0,1,196.33,136.93Z"/><path class="cls-5" d="M269.27,107.53A59.51,59.51,0,0,0,223.45,129H169.22a59.67,59.67,0,1,0-.65,77.08H224.1a59.64,59.64,0,1,0,45.17-98.56Z"/><circle class="cls-3" cx="269.27" cy="167.19" r="43.49"/><path class="cls-4" d="M266.56,155.18a9.93,9.93,0,1,0-9.92,9.93A9.93,9.93,0,0,0,266.56,155.18Z"/><path class="cls-4" d="M291.82,155.18a9.93,9.93,0,1,0-9.93,9.93A9.93,9.93,0,0,0,291.82,155.18Z"/><path class="cls-4" d="M266.56,179a9.93,9.93,0,1,0-9.92,9.93A9.93,9.93,0,0,0,266.56,179Z"/><path class="cls-4" d="M291.82,179a9.93,9.93,0,1,0-9.93,9.93A9.93,9.93,0,0,0,291.82,179Z"/><circle class="cls-3" cx="123.4" cy="167.19" r="43.49"/><path class="cls-4" d="M146.35,160.53l-13.56,0a1.92,1.92,0,0,1-1.92-1.92l0-13.56a1.91,1.91,0,0,0-1.92-1.91l-11.14,0a1.91,1.91,0,0,0-1.91,1.92l0,13.56a1.92,1.92,0,0,1-1.92,1.92l-13.56,0a1.92,1.92,0,0,0-1.91,1.93l0,11.13a1.92,1.92,0,0,0,1.92,1.92l13.56,0a1.92,1.92,0,0,1,1.92,1.92L116,191a1.92,1.92,0,0,0,1.92,1.92l11.14,0a1.93,1.93,0,0,0,1.92-1.93l0-13.56a1.91,1.91,0,0,1,1.91-1.92l13.56,0a1.92,1.92,0,0,0,1.92-1.92l0-11.14A1.93,1.93,0,0,0,146.35,160.53Z"/><rect class="cls-3" x="198.12" y="167.1" width="15.39" height="4.97" rx="0.61"/><rect class="cls-3" x="180.44" y="167.1" width="15.39" height="4.97" rx="0.61"/><rect class="cls-6" x="175.78" y="163.07" width="42.09" height="13.03" rx="1.35"/></g><path class="cls-3" d="M14.29,245.57a3.61,3.61,0,0,1-3.41-2.43c-1-3-2-6-2.89-9a3.62,3.62,0,1,1,6.94-2.05q1.29,4.38,2.78,8.66a3.62,3.62,0,0,1-2.23,4.61A3.5,3.5,0,0,1,14.29,245.57Z"/><path class="cls-3" d="M7.53,221A3.62,3.62,0,0,1,4,218.1,197.19,197.19,0,0,1,44.93,53.33a3.62,3.62,0,1,1,5.58,4.61A190,190,0,0,0,11.08,216.65,3.6,3.6,0,0,1,7.53,221Z"/><path class="cls-3" d="M377.32,113.51a3.63,3.63,0,0,1-3.38-2.34A189.56,189.56,0,0,0,283.66,10,3.61,3.61,0,0,1,287,3.62a196.73,196.73,0,0,1,93.72,105,3.62,3.62,0,0,1-2.09,4.67A3.68,3.68,0,0,1,377.32,113.51Z"/></g><g id="Layer_1" data-name="Layer 1"><path class="cls-3" d="M467.19,97.18l30.73-23.39,71.13-2.34,17.32,21.8-14.12,47.63-47.51,1.56,7.38-22.62-24.7.81-25.94,93.31,23.34-.77,6.05-22.84-11.13.37,6.64-23.4,60-2L546.72,236,516,259.71l-73,2.4-17-22.09Z"/><path class="cls-3" d="M442.94,277.24a15.57,15.57,0,0,1-12.32-6l-17-22.09a14.91,14.91,0,0,1-2.53-13.25L452.34,93.05a15.11,15.11,0,0,1,5.39-7.82l30.73-23.39a15.54,15.54,0,0,1,8.94-3.17l71.13-2.34a15.43,15.43,0,0,1,12.7,5.82L598.55,84a14.88,14.88,0,0,1,2.64,13.52L587.07,145.1a15.25,15.25,0,0,1-9.38,9.94c.27.29.53.58.79.89a14.93,14.93,0,0,1,2.78,13.37L561.61,240a15.18,15.18,0,0,1-5.36,7.92L525.5,271.6a15.63,15.63,0,0,1-9,3.23l-73,2.4Zm-.09-40.34,7.58,9.82,60-2,22.76-17.52L546,181.13l-22.32.73a14.87,14.87,0,0,1,2.15,12.27l-6,22.85a15.37,15.37,0,0,1-14.42,11.31l-23.34.77a15.41,15.41,0,0,1-12.63-5.73A14.9,14.9,0,0,1,466.59,210l25.94-93.31a15.38,15.38,0,0,1,14.38-11.14l24.69-.82a15.34,15.34,0,0,1,12.83,6,14.89,14.89,0,0,1,2.39,13.74l-.71,2.17,14.44-.47,8.8-29.68-7.64-9.62-58.27,1.91-22.78,17.34Z"/><path class="cls-3" d="M564.83,258.09,612.14,92.67,644.52,69l71.13-2.34,17,22.08L685.09,254.13l-47.77,1.58,13.85-47.62-24.71.81-13.85,47.62ZM677.09,115,654,115.8l-13.83,47.36,24.7-.82Z"/><path class="cls-3" d="M564.83,273.22a15.57,15.57,0,0,1-12.14-5.78A14.92,14.92,0,0,1,550,254L597.28,88.59a15.16,15.16,0,0,1,5.62-8l32.39-23.71a15.66,15.66,0,0,1,8.71-3l71.13-2.34a15.4,15.4,0,0,1,12.83,6l17,22.08a14.9,14.9,0,0,1,2.54,13.23L700,258.24a15.4,15.4,0,0,1-14.34,11l-47.77,1.57a15.31,15.31,0,0,1-12.57-5.66,15.47,15.47,0,0,1-12.14,6.47l-47.78,1.58Zm60.75-171.51-40.2,140.57,15.47-.51,10.77-37a15.39,15.39,0,0,1,14.32-11l24.71-.81a15.26,15.26,0,0,1,12.68,5.8A14.93,14.93,0,0,1,666,212.24l-8,27.65,15.33-.5L715.74,91.83,708.17,82l-58.29,1.91Zm14.61,76.58A15.53,15.53,0,0,1,628,172.46,14.9,14.9,0,0,1,625.35,159l13.83-47.35a15.39,15.39,0,0,1,14.32-11l23.08-.76a15.21,15.21,0,0,1,12.53,5.63,14.94,14.94,0,0,1,2.95,13.2l-12.2,47.3a15.36,15.36,0,0,1-14.45,11.41l-24.7.82Z"/><path class="cls-3" d="M758.46,87.85,789.22,64.2l48-1.58,17,22.08,30.76-23.65,48.05-1.59,17,22.09L902.55,247l-47.79,1.57,41.43-141-24.7.82-41.42,141L782,251l41.42-141-23.07.76-41.43,141-47.77,1.57Z"/><path class="cls-3" d="M711.16,268.41A15.58,15.58,0,0,1,699,262.62a14.92,14.92,0,0,1-2.71-13.43L743.6,83.77A15.12,15.12,0,0,1,748.94,76L779.69,52.3a15.61,15.61,0,0,1,9-3.22l48-1.58a15.17,15.17,0,0,1,12.83,6l7.55,9.79,18.4-14.15a15.57,15.57,0,0,1,9-3.21l48.06-1.59a15.18,15.18,0,0,1,12.82,6l17,22.08A14.88,14.88,0,0,1,965,85.65L917.41,251.09a15.39,15.39,0,0,1-14.34,11l-47.79,1.57A15.17,15.17,0,0,1,842.73,258a15.52,15.52,0,0,1-12.15,6.46l-48.05,1.59a15.32,15.32,0,0,1-11.72-4.71,15.53,15.53,0,0,1-11.36,5.47l-47.78,1.57ZM772,96.7,731.71,237.46l15.5-.51,38.32-130.42A15.38,15.38,0,0,1,799.84,95.6l23.08-.76a15.42,15.42,0,0,1,12.69,5.82,14.9,14.9,0,0,1,2.65,13.49l-35.54,121,15.62-.52,38.32-130.42A15.21,15.21,0,0,1,859.4,99,15.66,15.66,0,0,1,842,93.82L829.79,78l-35,1.15Zm124.23-4.27a15.56,15.56,0,0,1,12.17,5.83A14.89,14.89,0,0,1,911,111.75l-35.55,121,15.29-.5L933.2,84.67l-7.58-9.82-35,1.15L867.52,93.76a15.29,15.29,0,0,1,3.46-.5l24.69-.82Z"/><path class="cls-3" d="M1062.16,194.83l-13.83,47.35-95.83,3.15-17-22.09L977,80.66,1007.49,57l95.83-3.16-13.56,47.33-71.12,2.34-7.7,23.18,72.75-2.4-13.82,47.35-72.76,2.4L991,197.17Z"/><path class="cls-3" d="M952.5,260.46a15.54,15.54,0,0,1-12.32-6l-17-22.09a14.92,14.92,0,0,1-2.53-13.27L962.16,76.5a15.16,15.16,0,0,1,5.27-7.71l30.49-23.64A15.55,15.55,0,0,1,1007,41.9l95.83-3.16a15.3,15.3,0,0,1,12.66,5.78A14.92,14.92,0,0,1,1118.18,58l-13.56,47.33a15.22,15.22,0,0,1-8.71,9.79,14.87,14.87,0,0,1,2.62,13.4l-13.83,47.36a15.3,15.3,0,0,1-10,10.2,14.87,14.87,0,0,1,2.28,13l-13.83,47.35a15.39,15.39,0,0,1-14.32,11L953,260.46Zm-.07-40.32L960,230l76.6-2.52,4.9-16.79-49.93,1.65A15.41,15.41,0,0,1,979,206.63a14.88,14.88,0,0,1-2.91-13.24l6.07-23.1a15.38,15.38,0,0,1,14.43-11.35l61.53-2,4.9-16.78-51.56,1.7a15.28,15.28,0,0,1-12.86-6A14.9,14.9,0,0,1,996.26,122l7.7-23.17a15.41,15.41,0,0,1,14.16-10.44l59.84-2,4.8-16.76L1013.08,72,990.48,89.5Z"/><path class="cls-3" d="M1245.76,119l21.53-70.52,47.79-1.57-55,188.32L1212,236.79l19.9-70.46-23.07.76-21.27,70.5-48,1.59L1194.8,50.85l47.79-1.57-19.9,70.46Z"/><path class="cls-3" d="M1139.55,254.31a15.56,15.56,0,0,1-12.17-5.83,14.87,14.87,0,0,1-2.66-13.48L1180,46.67a15.38,15.38,0,0,1,14.32-10.94l47.78-1.57a15.35,15.35,0,0,1,12.56,5.65,15.5,15.5,0,0,1,12.14-6.47l47.79-1.57a15.35,15.35,0,0,1,12.68,5.81,14.87,14.87,0,0,1,2.67,13.47l-55,188.32a15.37,15.37,0,0,1-14.31,11l-48.06,1.58a15.34,15.34,0,0,1-12.42-5.49,15.51,15.51,0,0,1-12,6.29l-48,1.59Zm67-188.71-46.29,157.76,15.7-.52,18.11-60A15.38,15.38,0,0,1,1208.34,152l23.08-.76a15.46,15.46,0,0,1,12.64,5.76,14.9,14.9,0,0,1,2.75,13.4L1232.51,221l15.83-.52,46.07-157.75-15.51.51-18.35,60.09a15.39,15.39,0,0,1-14.27,10.79l-23.08.76a15.19,15.19,0,0,1-12.64-5.76,14.9,14.9,0,0,1-2.75-13.4l14.3-50.61ZM1245.76,119h0Z"/><path class="cls-3" d="M1372.73,184.6l41.15-141,48.06-1.59L1413,207.52l-31,23.68-70.86,2.33-17.57-22.08L1341.13,46l48.06-1.58-41.16,141Z"/><path class="cls-3" d="M1311.12,248.66a15.56,15.56,0,0,1-12.17-5.83l-17.56-22.07a14.85,14.85,0,0,1-2.69-13.41l47.57-165.42a15.39,15.39,0,0,1,14.34-11l48.06-1.58A15.29,15.29,0,0,1,1401.22,35a15.56,15.56,0,0,1,12.15-6.47l48.05-1.58a15.34,15.34,0,0,1,12.7,5.84,14.89,14.89,0,0,1,2.64,13.5l-48.94,165.46a15.17,15.17,0,0,1-5.34,7.73l-31,23.67a15.63,15.63,0,0,1-9,3.19l-70.85,2.33Zm-.59-40.48,7.92,10,58-1.91,23.12-17.64,41.62-140.72-15.56.51-38.07,130.37a15.35,15.35,0,0,1-14.31,11l-24.7.81a15.44,15.44,0,0,1-12.69-5.81,14.93,14.93,0,0,1-2.67-13.47l35.32-121-15.59.51Zm62.2-23.58h0Z"/><path class="cls-3" d="M1439,229.32,1494,41l95.84-3.15,17,22.08-13.58,47.61-31.13,25.27,17,22.09-13.85,47.61-30.48,23.65Zm92.38-72.85-23.07.76-7.7,23.16,24.7-.81Zm-9.52-46.58,23.35-.77L1552.9,86l-25,.82Z"/><path class="cls-3" d="M1439,244.45a15.55,15.55,0,0,1-12.17-5.82,14.87,14.87,0,0,1-2.67-13.47l55-188.32a15.36,15.36,0,0,1,14.31-11l95.84-3.15a15.28,15.28,0,0,1,12.83,6l17,22.08a14.87,14.87,0,0,1,2.55,13.2l-13.58,47.61a15.07,15.07,0,0,1-5,7.58l-19.77,16,8.13,10.55a14.89,14.89,0,0,1,2.53,13.27l-13.85,47.61a15.1,15.1,0,0,1-5.26,7.71L1544.4,238a15.62,15.62,0,0,1-9.06,3.26l-95.83,3.16Zm66.73-188.7L1459.66,213.5l69.57-2.29,22.59-17.54L1562.2,158l-12.39-16.07a14.91,14.91,0,0,1,.13-18.41,15.94,15.94,0,0,1-4.22.72l-23.35.77a15.38,15.38,0,0,1-12.55-5.65,14.92,14.92,0,0,1-2.91-13.24L1513,83a15.37,15.37,0,0,1,14.43-11.35l25-.82a15.11,15.11,0,0,1,12.85,6,14.85,14.85,0,0,1,2.34,13.77l-7.69,23.17a13.66,13.66,0,0,1-.72,1.77l20.53-16.67,10.22-35.83-7.58-9.84Zm-5.12,139.77a15.57,15.57,0,0,1-12.34-6,14.91,14.91,0,0,1-2.34-13.78l7.7-23.16a15.39,15.39,0,0,1,14.16-10.44l23.07-.76a15.37,15.37,0,0,1,12.56,5.65,14.91,14.91,0,0,1,2.91,13.25l-6.07,23.1a15.38,15.38,0,0,1-14.43,11.35l-24.7.81Z"/><path class="cls-5" d="M464.9,93.62l30.73-23.39,71.13-2.34L584.08,89.7,570,137.33l-47.51,1.56,7.38-22.62-24.7.81-26,93.3,23.36-.77,6.05-22.84-11.13.37,6.63-23.4,60-2-19.63,70.73-30.76,23.65-73,2.41-17-22.09Z"/><path class="cls-5" d="M562.53,254.54,609.85,89.12,642.24,65.4l71.12-2.34,17,22.09L682.8,250.58,635,252.15l13.85-47.61-24.71.81L610.31,253Zm112.28-143-23.08.76L637.89,159.6l24.71-.81Z"/><path class="cls-5" d="M756.17,84.31l30.76-23.67L835,59.06l17,22.09,30.76-23.66,48-1.59,17,22.1L900.25,243.42,852.48,245,893.9,104l-24.71.81-41.42,141-48,1.59,41.42-141-23.07.75-41.43,141-47.79,1.58Z"/><path class="cls-5" d="M1059.87,191.27,1046,238.62l-95.84,3.15-17-22.08L974.71,77.11l30.49-23.65L1101,50.3l-13.57,47.34L1016.34,100l-7.7,23.17,72.76-2.39-13.84,47.34-72.75,2.4-6.07,23.11Z"/><path class="cls-5" d="M1243.47,115.43,1265,44.9l47.78-1.57-55,188.32-48,1.58,19.89-70.46-23.07.76L1185.3,234l-48,1.59,55.26-188.33,47.78-1.57-19.89,70.46Z"/><path class="cls-5" d="M1370.44,181l41.16-141,48.05-1.59L1410.71,204l-31,23.66L1308.82,230l-17.57-22.07,47.59-165.43,48.06-1.58-41.17,141Z"/><path class="cls-5" d="M1436.69,225.76l55-188.32,95.85-3.15,17,22.09L1591,104l-31.12,25.27,17,22.09L1563,199l-30.49,23.65Zm92.39-72.85-23.08.76-7.69,23.16L1523,176Zm-9.52-46.57,23.34-.77,7.71-23.18-25,.83Z"/><path class="cls-3" d="M646.48,299.67l-19.54.65,2-7.67,19.62-.65,8.23-.28,19.45-.64-2,7.67-19.53.65-13.43,52.66-8.23.27Z"/><path class="cls-3" d="M684.08,286.76l7.71-.25L684,316.76h.17a17.85,17.85,0,0,1,6.43-5.41,20.3,20.3,0,0,1,8.8-2.27,15.59,15.59,0,0,1,5.38.7,8.66,8.66,0,0,1,4,2.62,9.13,9.13,0,0,1,2,4.71,17.43,17.43,0,0,1-.62,6.9l-6.59,26-7.72.26L702,326.39a14.06,14.06,0,0,0,.43-4.79,6.27,6.27,0,0,0-1.17-3.17,4.93,4.93,0,0,0-2.5-1.69,9.7,9.7,0,0,0-3.36-.44,15,15,0,0,0-4.67.91,13.28,13.28,0,0,0-4.22,2.55,17.06,17.06,0,0,0-3.45,4.3,24.72,24.72,0,0,0-2.41,6.08l-5.3,20.79-7.71.25Z"/><path class="cls-3" d="M725.37,332a9.22,9.22,0,0,0,0,4.78,7.89,7.89,0,0,0,2.11,3.6,9.72,9.72,0,0,0,3.76,2.24,13.69,13.69,0,0,0,4.94.68,14.24,14.24,0,0,0,6.69-1.87,31.36,31.36,0,0,0,6-4.55l4.63,4.24A28.83,28.83,0,0,1,733.45,350a18.94,18.94,0,0,1-8.25-1.33,12.65,12.65,0,0,1-5.44-4.25,14.19,14.19,0,0,1-2.49-6.6,21.64,21.64,0,0,1,.71-8.34,27.13,27.13,0,0,1,3.71-8.45,31,31,0,0,1,6.13-6.87,29.8,29.8,0,0,1,7.8-4.7,25.3,25.3,0,0,1,8.8-1.9,17,17,0,0,1,8.65,1.58,11.71,11.71,0,0,1,4.88,4.69,14.32,14.32,0,0,1,1.7,6.71,29.23,29.23,0,0,1-.89,7.67L758,331Zm26.07-6.95a15.65,15.65,0,0,0,.37-4.65,7.61,7.61,0,0,0-1.22-3.64,6.49,6.49,0,0,0-3-2.35,11.78,11.78,0,0,0-4.9-.73,15,15,0,0,0-5.47,1.24,19.91,19.91,0,0,0-4.77,2.91,18.59,18.59,0,0,0-3.58,3.87,12.72,12.72,0,0,0-2,4.17Z"/><path class="cls-3" d="M822.69,346l-7.71.26,1.57-6.22h-.17a17.74,17.74,0,0,1-6.43,5.41,20.21,20.21,0,0,1-8.8,2.28,15.38,15.38,0,0,1-5.43-.71,8.72,8.72,0,0,1-4-2.61,9.21,9.21,0,0,1-2-4.71,18.21,18.21,0,0,1,.55-6.9l6.67-26,7.71-.25-6.08,23.86a12.52,12.52,0,0,0-.51,4.79,6,6,0,0,0,1.21,3.17,5.21,5.21,0,0,0,2.53,1.69,10,10,0,0,0,3.37.44,14.48,14.48,0,0,0,8.85-3.47q4-3.3,5.89-10.37l5.31-20.79,7.71-.26Z"/><path class="cls-3" d="M844.65,305.27l7.71-.26-1.57,6.22H851a17.76,17.76,0,0,1,6.43-5.41,20.27,20.27,0,0,1,8.8-2.27,15.38,15.38,0,0,1,5.38.71,8.7,8.7,0,0,1,4,2.61,9.21,9.21,0,0,1,2,4.71,17.27,17.27,0,0,1-.63,6.9l-6.59,26-7.71.26,6.09-23.86a14,14,0,0,0,.42-4.79A6.31,6.31,0,0,0,868,312.9a5,5,0,0,0-2.49-1.69,9.94,9.94,0,0,0-3.36-.44,15.07,15.07,0,0,0-4.68.91,13.5,13.5,0,0,0-4.22,2.55,17,17,0,0,0-3.44,4.3,24.33,24.33,0,0,0-2.41,6.08l-5.3,20.79-7.72.25Z"/><path class="cls-3" d="M892.89,303.67l7.71-.26L890.3,343.8l-7.71.25Zm1.93-14.43a7.67,7.67,0,0,1,2.68-4,7.19,7.19,0,0,1,4.39-1.79,4.12,4.12,0,0,1,3.58,1.53,4.25,4.25,0,0,1,.66,3.9,7.71,7.71,0,0,1-2.69,4,7.13,7.13,0,0,1-4.39,1.79,4.09,4.09,0,0,1-3.58-1.52A4.24,4.24,0,0,1,894.82,289.24Z"/><path class="cls-3" d="M908,303.17l8.91-.3,4.24,30.53,19.59-31.32,8.22-.27-26.24,40.92-8.48.28Z"/><path class="cls-3" d="M955.54,324.4a9.34,9.34,0,0,0,0,4.78,8.07,8.07,0,0,0,2.11,3.6,9.83,9.83,0,0,0,3.77,2.24,13.69,13.69,0,0,0,4.94.68,14.24,14.24,0,0,0,6.69-1.87,31.67,31.67,0,0,0,6-4.55l4.63,4.24a28.87,28.87,0,0,1-20.06,8.86,19.09,19.09,0,0,1-8.25-1.33,12.74,12.74,0,0,1-5.45-4.25,14.29,14.29,0,0,1-2.48-6.6,21.64,21.64,0,0,1,.71-8.34,27.13,27.13,0,0,1,3.71-8.45,31.26,31.26,0,0,1,6.13-6.88,29.77,29.77,0,0,1,7.8-4.69,25.3,25.3,0,0,1,8.8-1.9,17.13,17.13,0,0,1,8.65,1.57,11.79,11.79,0,0,1,4.88,4.7,14.31,14.31,0,0,1,1.7,6.7,29.26,29.26,0,0,1-.89,7.68l-.74,2.73Zm26.07-6.95a15.69,15.69,0,0,0,.37-4.66,7.61,7.61,0,0,0-1.22-3.63,6.42,6.42,0,0,0-3-2.35,11.78,11.78,0,0,0-4.9-.73,15,15,0,0,0-5.48,1.24,20.14,20.14,0,0,0-4.76,2.9A19.23,19.23,0,0,0,959,314.1a12.94,12.94,0,0,0-1.94,4.16Z"/><path class="cls-3" d="M1003.35,300l7.71-.25-1.57,6.22h.17a18.08,18.08,0,0,1,6.26-5.4,17.57,17.57,0,0,1,7.77-2.25,9.71,9.71,0,0,1,3.28.4l-2.49,8.28q-.91-.23-1.8-.36a9,9,0,0,0-1.82-.11,14.72,14.72,0,0,0-9.44,3.44q-3.79,3.26-5.5,9.9l-5.16,20.28-7.72.25Z"/><path class="cls-3" d="M1054,308.38a7.56,7.56,0,0,0-2.62-2.75,8.06,8.06,0,0,0-4.63-1,11.45,11.45,0,0,0-5.06,1.31,5.12,5.12,0,0,0-2.83,3.43,3.12,3.12,0,0,0,.4,2.86,5.83,5.83,0,0,0,2.28,1.69,12.49,12.49,0,0,0,3.09.92l2.93.49a27.07,27.07,0,0,1,4.29,1.29,9,9,0,0,1,3.22,2.09,6.33,6.33,0,0,1,1.63,3.25,11.53,11.53,0,0,1-.29,4.74,15.51,15.51,0,0,1-2.94,5.88,17.89,17.89,0,0,1-4.79,4.09,22.37,22.37,0,0,1-5.86,2.39,29.62,29.62,0,0,1-6.12.88,20.25,20.25,0,0,1-8.44-1.24,10.75,10.75,0,0,1-5.39-5.4l7-5a15.18,15.18,0,0,0,3.4,3.18,8.79,8.79,0,0,0,5.35,1.26,15.42,15.42,0,0,0,5.91-1.42,6.1,6.1,0,0,0,3.63-4,3.11,3.11,0,0,0-.32-2.77,5.08,5.08,0,0,0-2.12-1.67,14.87,14.87,0,0,0-3-.91c-1.09-.22-2-.4-2.81-.54a42.68,42.68,0,0,1-4.41-1.21,10.11,10.11,0,0,1-3.46-1.91,6.08,6.08,0,0,1-1.91-3.15,9.59,9.59,0,0,1,.26-4.82,14,14,0,0,1,2.73-5.54,18.13,18.13,0,0,1,4.52-4,21.62,21.62,0,0,1,5.57-2.46,24.63,24.63,0,0,1,5.83-1,17.77,17.77,0,0,1,7.5,1.28,8.17,8.17,0,0,1,4.68,4.91Z"/><path class="cls-3" d="M1072.94,320.51a9.19,9.19,0,0,0,0,4.77,8,8,0,0,0,2.11,3.61,9.76,9.76,0,0,0,3.77,2.24,13.88,13.88,0,0,0,4.94.68,14.23,14.23,0,0,0,6.68-1.87,31.41,31.41,0,0,0,6-4.55l4.63,4.24a28.87,28.87,0,0,1-20.06,8.86,19.16,19.16,0,0,1-8.26-1.33,12.71,12.71,0,0,1-5.44-4.26,14.25,14.25,0,0,1-2.48-6.59,21.44,21.44,0,0,1,.71-8.34,26.9,26.9,0,0,1,3.71-8.45,31.26,31.26,0,0,1,6.13-6.88,29.77,29.77,0,0,1,7.8-4.69,25,25,0,0,1,8.79-1.9,17.17,17.17,0,0,1,8.66,1.57,11.76,11.76,0,0,1,4.87,4.7,14.29,14.29,0,0,1,1.71,6.7,29.68,29.68,0,0,1-.89,7.68l-.74,2.73Zm26.07-6.95a15.34,15.34,0,0,0,.36-4.66,7.5,7.5,0,0,0-1.21-3.63,6.42,6.42,0,0,0-3-2.35,11.8,11.8,0,0,0-4.91-.73,14.83,14.83,0,0,0-5.47,1.24,19.94,19.94,0,0,0-4.76,2.9,19,19,0,0,0-3.59,3.88,12.84,12.84,0,0,0-1.94,4.16Z"/><path class="cls-3" d="M1137.44,315.58a25.61,25.61,0,0,1,3.78-8.32,32.66,32.66,0,0,1,6.35-6.88,31.58,31.58,0,0,1,8-4.79,25.24,25.24,0,0,1,8.89-1.94,18.29,18.29,0,0,1,8,1.38,14.38,14.38,0,0,1,5.69,4.33,14.6,14.6,0,0,1,2.87,6.58,19.52,19.52,0,0,1-.44,8.21,28.2,28.2,0,0,1-3.82,8.36,30.66,30.66,0,0,1-6.31,6.89,32.06,32.06,0,0,1-8,4.74,25.24,25.24,0,0,1-8.89,1.94,18.6,18.6,0,0,1-8.08-1.38,14.13,14.13,0,0,1-5.69-4.28,14.89,14.89,0,0,1-2.87-6.59A18.65,18.65,0,0,1,1137.44,315.58Zm8.23-.27a16.07,16.07,0,0,0-.52,5.63,9,9,0,0,0,1.5,4.35,8.19,8.19,0,0,0,3.48,2.76,12.32,12.32,0,0,0,5.32.88,16.43,16.43,0,0,0,5.82-1.25,18.51,18.51,0,0,0,4.92-3,19.81,19.81,0,0,0,3.81-4.52,20.3,20.3,0,0,0,2.41-5.7,16.31,16.31,0,0,0,.52-5.63,8.73,8.73,0,0,0-1.55-4.35,8.47,8.47,0,0,0-3.48-2.75,11.75,11.75,0,0,0-5.27-.88,16,16,0,0,0-5.82,1.25,18.81,18.81,0,0,0-5,3,18.15,18.15,0,0,0-3.8,4.52A20.94,20.94,0,0,0,1145.67,315.31Z"/><path class="cls-3" d="M1196.76,300.18l-8.74.29,1.71-6.65,8.74-.29,2.32-9q2.13-8.1,6.21-12.16t11.68-4.32c.86,0,1.75,0,2.68,0a13.6,13.6,0,0,1,2.89.41l-2.59,6.85a8.3,8.3,0,0,0-2-.53,14.15,14.15,0,0,0-2.21-.1,9,9,0,0,0-3.59.76,6.87,6.87,0,0,0-2.44,1.89,11.39,11.39,0,0,0-1.66,2.89,36.88,36.88,0,0,0-1.25,3.8l-2.33,9.29,9.15-.31-1.71,6.65-9.22.31-8.54,33.74-7.72.25Z"/><path class="cls-3" d="M1278.35,330.6a28.42,28.42,0,0,1-3.75,8.44,28.74,28.74,0,0,1-6.17,6.71,29.49,29.49,0,0,1-8.13,4.54,32.23,32.23,0,0,1-19.79.57,17.24,17.24,0,0,1-7.76-5.32l6.83-6.65a14.07,14.07,0,0,0,5.3,4.69,15.67,15.67,0,0,0,7.57,1.39,20.56,20.56,0,0,0,7.42-1.47,18,18,0,0,0,5.3-3.34,17.08,17.08,0,0,0,3.47-4.55,26.61,26.61,0,0,0,2-5.1l1.46-6h-.26a20.51,20.51,0,0,1-7.39,5.61,22.48,22.48,0,0,1-8.43,2,18.46,18.46,0,0,1-7.87-1.3,13.14,13.14,0,0,1-5.46-4.13,14,14,0,0,1-2.63-6.42,19.74,19.74,0,0,1,.6-8.17,29,29,0,0,1,3.57-8.36,31,31,0,0,1,5.88-6.91,27.3,27.3,0,0,1,7.68-4.73,25.61,25.61,0,0,1,9-1.91,15.82,15.82,0,0,1,7.54,1.53,9.73,9.73,0,0,1,4.87,4.82h.17l1.44-5.8,7.71-.25Zm-12.46-33.22a16.43,16.43,0,0,0-5.82,1.25,19.11,19.11,0,0,0-5,3,18.15,18.15,0,0,0-3.8,4.52,20.81,20.81,0,0,0-2.37,5.7q-1.65,6.14,1,9.72t8.83,3.38a17,17,0,0,0,10.71-4,19.21,19.21,0,0,0,6.19-10,16.36,16.36,0,0,0,.52-5.64,8.69,8.69,0,0,0-1.55-4.34,8.57,8.57,0,0,0-3.48-2.76A11.89,11.89,0,0,0,1265.89,297.38Z"/><path class="cls-3" d="M1299.1,295.1a31.1,31.1,0,0,1,8.7-4.73,30.27,30.27,0,0,1,9-1.77,21.39,21.39,0,0,1,7.42.85,10.26,10.26,0,0,1,4.54,2.81,7.79,7.79,0,0,1,1.9,4.2,13.42,13.42,0,0,1-.32,5L1325,322.12c-.39,1.42-.71,2.73-1,3.92s-.44,2.32-.57,3.4l-6.85.23c.17-1,.36-2,.56-3.06s.45-2.05.74-3.07h-.17a21.09,21.09,0,0,1-16.08,7.63,16.51,16.51,0,0,1-5.18-.58,9.33,9.33,0,0,1-3.89-2.16,7.53,7.53,0,0,1-2.09-3.69,10.51,10.51,0,0,1,.22-5.2,15,15,0,0,1,3.41-6.62,20.15,20.15,0,0,1,5.93-4.46,30.73,30.73,0,0,1,7.73-2.63,54.81,54.81,0,0,1,8.87-1l5.66-.18.45-1.71a7.36,7.36,0,0,0,.22-3.05,5.72,5.72,0,0,0-1.09-2.71,5.83,5.83,0,0,0-2.52-1.86,10.22,10.22,0,0,0-4.11-.58,18.15,18.15,0,0,0-4,.56,21.09,21.09,0,0,0-3.29,1.16,21.56,21.56,0,0,0-2.83,1.57c-.89.6-1.77,1.16-2.63,1.7Zm17.68,15.3q-2.76.09-5.71.48a27.4,27.4,0,0,0-5.56,1.33,14.6,14.6,0,0,0-4.49,2.51,7.53,7.53,0,0,0-2.51,4q-.91,3.49,1,4.95t6,1.32a14.62,14.62,0,0,0,5.67-1.24,15.63,15.63,0,0,0,7.3-6.75,16.83,16.83,0,0,0,1.63-4.15l.73-2.56Z"/><path class="cls-3" d="M1344.66,288.69l7.19-.24-1.58,6.3h.17a12.27,12.27,0,0,1,1.88-2.18,18.15,18.15,0,0,1,3.36-2.52,25.86,25.86,0,0,1,4.46-2.09,16.76,16.76,0,0,1,5.19-1q8.82-.3,10.7,7.08a20.22,20.22,0,0,1,7-5.81,19,19,0,0,1,7.74-2.12,14.43,14.43,0,0,1,7.31,1.28,8,8,0,0,1,3.63,3.89,12.84,12.84,0,0,1,.89,5.64,32.37,32.37,0,0,1-1.06,6.58L1395.71,327l-7.71.26,5.76-22.5a28.77,28.77,0,0,0,.81-4.42,9.54,9.54,0,0,0-.3-3.71,4.51,4.51,0,0,0-2-2.51,7.77,7.77,0,0,0-4.3-.83,12.12,12.12,0,0,0-8.84,3.68,20.07,20.07,0,0,0-4.65,8.85l-5.62,22.07-7.71.26,5.34-21.13a42.79,42.79,0,0,0,1.08-5.28,10.92,10.92,0,0,0-.12-4.09,4.27,4.27,0,0,0-1.88-2.64,7.34,7.34,0,0,0-4.25-.83,12.15,12.15,0,0,0-4.21.94,13.77,13.77,0,0,0-4,2.54,17.19,17.19,0,0,0-3.34,4.21,23.77,23.77,0,0,0-2.4,5.95l-5.32,21-7.72.26Z"/><path class="cls-3" d="M1417.5,309.08a9.22,9.22,0,0,0,0,4.78,8,8,0,0,0,2.11,3.6,9.78,9.78,0,0,0,3.77,2.25,14.05,14.05,0,0,0,4.93.68,14.36,14.36,0,0,0,6.69-1.87,32.2,32.2,0,0,0,6-4.55l4.63,4.23a28.86,28.86,0,0,1-20.06,8.87,19.24,19.24,0,0,1-8.25-1.33,12.8,12.8,0,0,1-5.44-4.26,14.25,14.25,0,0,1-2.48-6.59,21.3,21.3,0,0,1,.71-8.35,27.05,27.05,0,0,1,3.7-8.44,31.29,31.29,0,0,1,6.13-6.88,30,30,0,0,1,7.8-4.7,25.29,25.29,0,0,1,8.8-1.89,17,17,0,0,1,8.65,1.57,11.73,11.73,0,0,1,4.88,4.7,14.25,14.25,0,0,1,1.7,6.7,29.21,29.21,0,0,1-.88,7.67l-.75,2.73Zm26.08-6.94a16,16,0,0,0,.36-4.66,7.61,7.61,0,0,0-1.21-3.64,6.57,6.57,0,0,0-3-2.35,11.6,11.6,0,0,0-4.9-.72,14.59,14.59,0,0,0-5.47,1.24,19.94,19.94,0,0,0-4.76,2.9,18.42,18.42,0,0,0-3.59,3.88,12.64,12.64,0,0,0-1.94,4.16Z"/><path class="cls-3" d="M1484.28,294.11a7.62,7.62,0,0,0-2.62-2.74,8.15,8.15,0,0,0-4.63-1,11.58,11.58,0,0,0-5.06,1.31,5.14,5.14,0,0,0-2.83,3.43,3.09,3.09,0,0,0,.4,2.86,6,6,0,0,0,2.28,1.7,12.92,12.92,0,0,0,3.09.91l2.93.5a27.07,27.07,0,0,1,4.29,1.29,9,9,0,0,1,3.22,2.09,6.26,6.26,0,0,1,1.63,3.24,11.52,11.52,0,0,1-.29,4.74,15.48,15.48,0,0,1-2.94,5.89,17.82,17.82,0,0,1-4.79,4.08,22,22,0,0,1-5.87,2.4,29.4,29.4,0,0,1-6.12.87,20.06,20.06,0,0,1-8.43-1.24,10.79,10.79,0,0,1-5.4-5.39l7-5a15.23,15.23,0,0,0,3.4,3.19,8.73,8.73,0,0,0,5.35,1.25,15.28,15.28,0,0,0,5.91-1.42,6.11,6.11,0,0,0,3.63-4,3.17,3.17,0,0,0-.32-2.78,5.12,5.12,0,0,0-2.12-1.66,14.87,14.87,0,0,0-3-.92l-2.81-.54a42,42,0,0,1-4.41-1.2,10,10,0,0,1-3.46-1.92,6.09,6.09,0,0,1-1.91-3.14,9.63,9.63,0,0,1,.26-4.83,14,14,0,0,1,2.73-5.54,18.23,18.23,0,0,1,4.51-4,22.21,22.21,0,0,1,5.58-2.47,24.1,24.1,0,0,1,5.83-1,17.72,17.72,0,0,1,7.49,1.27,8.18,8.18,0,0,1,4.69,4.92Z"/><path class="cls-3" d="M426.7,300.11c-2.06,0-3.76-.88-3.83-2s1.59-2.07,3.71-2.11l188.63-3.36c2.13,0,3.89.85,4,2s-1.59,2.08-3.71,2.12L426.83,300.1Z"/></g></svg>