<?xml version="1.0" encoding="UTF-8"?><svg id="_Ñëîé_1" xmlns="http://www.w3.org/2000/svg" viewBox="0 0 2600 919.13"><defs><style>.cls-1{fill:#384044;}.cls-2{fill:#fff;}.cls-3{fill:#ffca00;}.cls-4{fill:#e1e3ea;}.cls-5{fill:#e2e2e2;}.cls-6{fill:#ffc19f;}.cls-7{fill:#0a9e6c;}.cls-8{fill:#ffdcca;}.cls-9{opacity:.49;}.cls-9,.cls-10{fill:#cbccd0;}.cls-11{fill:#333;}.cls-12{fill:#ffc4b6;opacity:.42;}.cls-13{fill:#e4e9f4;}.cls-14{fill:#afafaf;}.cls-15{fill:#417fc9;}.cls-16{fill:#494949;}.cls-17{fill:#979caa;}.cls-18{fill:#ed423a;}.cls-19{fill:#82bf19;}.cls-20{fill:#dd775f;}.cls-21{fill:#e8b33f;}.cls-22{fill:#fd9578;}.cls-23{fill:#282f39;}.cls-24{fill:#ff9100;}</style></defs><path class="cls-17" d="M1748.11,47.82s11.56-33.46,71.06-24.44c59.5,9.02,51-14.48,83.5-21.98s52.69,17.39,69,24c26.33,10.67,50.5-8,79-8.5s38.08,30.93,38.08,30.93l-64.75,42.57-275.88-42.57Z"/><path class="cls-10" d="M1821.44,42.3c59.93,25.23,64.66-15.77,96.99-18.92,32.33,3.15,37.06,44.16,96.99,18.92,59.93-25.23,73.33,5.52,73.33,5.52-66.23,50.46-89.89,187.66-89.89,187.66l-80.43,11.83-80.43-11.83s-23.66-137.2-89.89-187.66c0,0,13.4-30.75,73.33-5.52Z"/><path class="cls-17" d="M2035.03,35.49c25.63-5.76,14.46,12.33,14.46,12.33-66.23,50.46-89.89,187.66-89.89,187.66l-60.8,8.94,19.62,2.89,80.43-11.83s23.66-137.2,89.89-187.66c0,0-10.39-23.8-53.71-12.33Z"/><path class="cls-10" d="M1732.39,208.62h372.06c43.17,0,78.21,35.05,78.21,78.21v216.17c0,139.11-112.94,252.05-252.05,252.05h-24.39c-139.11,0-252.05-112.94-252.05-252.05v-216.17c0-43.17,35.05-78.21,78.21-78.21Z" transform="translate(3836.85 963.67) rotate(180)"/><path class="cls-17" d="M1930.62,208.62h-24.39c-8.54,0-16.98,.43-25.3,1.26,127.32,12.69,226.75,120.13,226.75,250.79v216.17c0,43.19-35.02,78.21-78.21,78.21h75c43.19,0,78.21-35.02,78.21-78.21v-216.17c0-139.2-112.85-252.05-252.05-252.05Z"/><rect class="cls-4" x="1719.67" y="361.98" width="74.17" height="231.15" rx="37.09" ry="37.09"/><circle class="cls-2" cx="1918.43" cy="488.87" r="143.18" transform="translate(216.21 1499.72) rotate(-45)"/><circle class="cls-19" cx="1918.43" cy="488.87" r="120.12"/><path class="cls-19" d="M1767.25,488.87c0-83.36,67.82-151.18,151.18-151.18s151.18,67.82,151.18,151.18-67.82,151.18-151.18,151.18-151.18-67.82-151.18-151.18Zm8,0c0,78.95,64.23,143.18,143.18,143.18s143.18-64.23,143.18-143.18-64.23-143.18-143.18-143.18-143.18,64.23-143.18,143.18Z"/><path class="cls-3" d="M1831.93,222.67h171.68c7.03,0,12.73-5.7,12.73-12.73h0c0-7.03-5.7-12.73-12.73-12.73h-171.68c-7.03,0-12.73,5.7-12.73,12.73h0c0,7.03,5.7,12.73,12.73,12.73Z"/><path class="cls-24" d="M1831.34,213.37h172.85c5.28,0,9.76-3.38,11.43-8.08,.45,1.27,.71,2.63,.71,4.06v1.18c0,6.71-5.44,12.14-12.14,12.14h-172.85c-6.71,0-12.14-5.44-12.14-12.14v-1.18c0-1.43,.26-2.79,.71-4.06,1.67,4.71,6.15,8.08,11.43,8.08Z"/><path class="cls-24" d="M1820.5,298.19c34.25-13.47,49.92-35.39,57.03-51.41,7.82-17.62,7.28-32.26,7.26-32.87l-19.43,.85v-.06c0,.11,.28,11.42-5.98,25.01-8.31,18.05-23.78,31.64-46,40.38l7.12,18.1Z"/><path class="cls-24" d="M1929.98,312.11l11.8-15.46-5.9,7.73,5.92-7.72c-.1-.08-10.07-7.83-20.99-22.15-9.94-13.03-22.76-34.39-27.4-62.14l-19.19,3.21c10.24,61.16,53.9,95.11,55.75,96.52Z"/><circle class="cls-3" cx="1881.45" cy="209.94" r="29.59"/><path class="cls-24" d="M1881.45,225.85c13.99,0,25.7-9.71,28.79-22.75,.52,2.2,.8,4.49,.8,6.84,0,16.34-13.25,29.59-29.59,29.59s-29.59-13.25-29.59-29.59c0-2.36,.28-4.65,.8-6.84,3.09,13.04,14.8,22.75,28.79,22.75Z"/><ellipse class="cls-2" cx="1881.45" cy="199.04" rx="14.35" ry="10"/><path class="cls-2" d="M1919.64,207.95h81.2c1.62,0,2.94-1.32,2.94-2.94h0c0-1.62-1.32-2.94-2.94-2.94h-81.2c-1.62,0-2.94,1.33-2.94,2.94h0c0,1.62,1.33,2.94,2.94,2.94Z"/><path class="cls-2" d="M1830.07,207.95h12.4c1.62,0,2.94-1.32,2.94-2.94h0c0-1.62-1.33-2.94-2.94-2.94h-12.4c-1.62,0-2.94,1.33-2.94,2.94h0c0,1.62,1.32,2.94,2.94,2.94Z"/><g><rect class="cls-18" x="494.65" y="156.85" width="98.13" height="36.74" rx="13.79" ry="13.79"/><rect class="cls-18" x="860.3" y="156.85" width="98.13" height="36.74" rx="13.79" ry="13.79"/><path class="cls-11" d="M505.05,170.04h77.33c12.25,0,22.2,9.95,22.2,22.2v46.39h-121.73v-46.39c0-12.25,9.95-22.2,22.2-22.2Z"/><path class="cls-11" d="M870.7,170.04h77.33c12.25,0,22.2,9.95,22.2,22.2v46.39h-121.73v-46.39c0-12.25,9.95-22.2,22.2-22.2Z"/><circle class="cls-11" cx="543.71" cy="347.9" r="161.15" transform="translate(-86.75 486.36) rotate(-45)"/><circle class="cls-11" cx="909.37" cy="347.9" r="161.15" transform="translate(20.35 744.92) rotate(-45)"/><path class="cls-11" d="M877.67,259.89v176.02c0,5.46-4.46,9.92-9.92,9.92h-282.42c-5.46,0-9.92-4.47-9.92-9.92v-176.02c0-5.46,4.46-9.92,9.92-9.92h282.42c5.46,0,9.92,4.46,9.92,9.92Z"/><g><path class="cls-11" d="M441.77,676.59h0c-46.41,0-82.21-33.19-76.08-70.55l31.31-191.1h196.6l-78.16,216.82c-9.58,26.56-39.58,44.82-73.66,44.82Z"/><path class="cls-11" d="M1011.31,676.59h0c46.41,0,82.21-33.19,76.08-70.55l-31.31-191.1h-196.6l78.16,216.82c9.58,26.56,39.58,44.82,73.66,44.82Z"/></g><g><rect class="cls-18" x="685.17" y="367.9" width="28.71" height="21.11" rx="9.5" ry="9.5"/><rect class="cls-18" x="739.2" y="367.9" width="28.71" height="21.11" rx="9.5" ry="9.5"/></g><circle class="cls-11" cx="658.61" cy="462" r="47.05" transform="translate(42.41 979.21) rotate(-75.06)"/><circle class="cls-11" cx="794.48" cy="462" r="47.05" transform="translate(165.42 1132.02) rotate(-76.98)"/><circle class="cls-14" cx="794.48" cy="462" r="33.27" transform="translate(164.52 1131.17) rotate(-76.91)"/><circle class="cls-14" cx="658.61" cy="462" r="33.27" transform="translate(48.4 986.26) rotate(-75.72)"/><circle class="cls-16" cx="543.71" cy="347.9" r="118.84" transform="translate(-86.75 486.36) rotate(-45)"/><circle class="cls-16" cx="909.37" cy="347.9" r="118.84" transform="translate(20.35 744.92) rotate(-45)"/><path class="cls-14" d="M599,327.87h-35.25v-35.25c0-6.53-5.34-11.87-11.87-11.87h-16.32c-6.53,0-11.87,5.34-11.87,11.87v35.25h-35.25c-6.53,0-11.87,5.34-11.87,11.87v16.32c0,6.53,5.34,11.87,11.87,11.87h35.25v35.25c0,6.53,5.34,11.87,11.87,11.87h16.32c6.53,0,11.87-5.34,11.87-11.87v-35.25h35.25c6.53,0,11.87-5.34,11.87-11.87v-16.32c0-6.53-5.34-11.87-11.87-11.87Z"/><g><circle class="cls-18" cx="909.37" cy="288.54" r="27.59"/><circle class="cls-7" cx="909.37" cy="407.26" r="27.59" transform="translate(-21.63 762.3) rotate(-45)"/><circle class="cls-21" cx="968.73" cy="347.9" r="27.59" transform="translate(-59.71 390.13) rotate(-22.11)"/><circle class="cls-15" cx="850.01" cy="347.9" r="27.59" transform="translate(371.53 1131.87) rotate(-80.86)"/></g><polygon class="cls-16" points="580.87 316.36 575.25 310.74 543.71 342.28 512.18 310.74 506.56 316.36 538.09 347.9 506.56 379.44 512.18 385.06 543.71 353.52 575.25 385.06 580.87 379.44 549.34 347.9 580.87 316.36"/><rect class="cls-16" x="686.56" y="280.68" width="79.97" height="61.8" rx="25.97" ry="25.97"/><path class="cls-11" d="M710.92,238.63h31.23c5.63,0,10.2,4.57,10.2,10.2v1.13h-51.64v-1.13c0-5.63,4.57-10.2,10.2-10.2Z"/></g><rect class="cls-13" x="1793.24" y="743.66" width="169.57" height="5.33"/><g><path class="cls-22" d="M2271.85,696.93s-35.07-131.95-270.48-71.04c0,0-43.21-.42-118-22.15-40.69-11.83-66.96-22.33-66.96-22.33,0,0-40.97-8.93-33.77,39.84,9.48,64.18,132.75,106.8,205.97,125.62,12.08,3.1,47.1,16.49,47.1,16.49l236.14-66.43Z"/><path class="cls-6" d="M1816.4,581.42s-18.09,1.57-19.9,17.13c-1.81,15.56,8.68,23.88,22.79,32.2l15.19,5.95,22.43-40.57-40.52-14.7Z"/><path class="cls-8" d="M1834.49,636.69s-.72-38.15,15.56-43.57l6.87,3-22.43,40.57Z"/></g><g><path class="cls-22" d="M1609.04,768.94s.02,.01,.03,.02c2.42,1.54,157.91,100.22,202.51,105.96,0,0,.03,0,.09,0,2.26,.29,5.72,.46,10.24,.54,56.44,.92,278.76-13.86,425.56-24.18,28.09-1.98,53.42-3.78,74.29-5.3,36.65-2.64,59.55-4.35,59.55-4.35l-7.2-1.32-52.36-9.57-46.66-8.53h-.01l-6.8-1.24-284.66-52.04h-374.58Z"/><path class="cls-22" d="M1811.58,874.93s.03,0,.09,0c.61,.03,4.21,.23,10.24,.54,52.15,2.67,286.89,13.7,359.08,.04,31.21-5.9,52.31-15.11,66.48-24.22,4.98-3.2,9.1-6.39,12.5-9.42,12.17-10.85,15.12-19.64,15.12-19.64h-.01l-10.41-.33-429.87-13.47-12.09,34.62-4.23,12.13-6.9,19.75Z"/><g><path class="cls-22" d="M1480.57,676.57c.4,1.37,.86,2.72,1.37,4.05,4.68,12.3,13.49,22.58,24.72,29.47,2.55,1.56,5.48,3.35,8.75,5.33l1.32,.8c1.52,.92,3.1,1.88,4.76,2.87l2.53,1.52h0s.02,.01,.04,.02c20.97,12.57,51.36,30.29,84.99,48.3,0,0,.02,.01,.03,.02,44.43,23.8,94.52,48.12,136.03,61.81,17.76,5.87,33.96,9.78,47.47,10.87,7.09,.57,17.31,1.03,30.14,1.4,76.09,2.19,243.7,1.03,389.92-.62,16.09-.18,31.92-.37,47.34-.56,21.53-.27,42.25-.54,61.78-.8,18.67-.25,36.24-.5,52.36-.74,60.75-.88,100.72-1.56,100.72-1.56v-173.54s-156.79,23.02-215.64,6.66c-58.84-16.35-53.9-21.29-53.9-21.29l-162.55,62.56-240.8,25.75s-220.68-99.7-286.91-96.42c-35.48,1.76-38.98,18.64-34.46,34.08Z"/><path class="cls-6" d="M1480.57,676.57c.4,1.37,.86,2.72,1.37,4.05,4.68,12.3,13.49,22.58,24.72,29.47,4.62,2.84,10.48,6.4,17.35,10.52l19.27-32.35-14.47-9.12c-32.2-19.62-48.23-2.57-48.23-2.57Z"/><path class="cls-8" d="M1543.27,688.27s-20.66,13.44-27.87,27.16l8.61,5.19,19.27-32.35Z"/></g></g><polygon class="cls-20" points="2328.84 677.7 2328.84 845.48 2314.67 846.5 2314.67 677.64 2328.84 677.7"/><path class="cls-5" d="M2337.52,631.6h105.82c4.78,0,8.68,3.91,8.68,8.68v241.33c0,4.78-3.91,8.68-8.68,8.68h-105.82c-4.78,0-8.68-3.91-8.68-8.68v-241.33c0-4.78,3.91-8.68,8.68-8.68Z"/><path class="cls-10" d="M2452.03,881.62c0,4.78-3.91,8.68-8.68,8.68h-105.82c-4.78,0-8.68-3.91-8.68-8.68v-127.79h123.19v127.79Z"/><path class="cls-1" d="M2391.79,616.02v289.85c0,7.32,5.94,13.26,13.26,13.26h194.95v-316.36h-194.95c-7.31,0-13.26,5.93-13.26,13.26Z"/><path class="cls-23" d="M2391.79,760.95v144.93c0,7.32,5.94,13.26,13.26,13.26h194.95v-158.18h-208.21Z"/><circle class="cls-9" cx="2460.95" cy="855.79" r="31.84" transform="translate(728.54 2801.92) rotate(-67.5)"/><path class="cls-20" d="M1785.56,593.12s-6.06,64.34,71.36,95.15c77.42,30.81,191.01,62.95,220.68,88.27l-148.01-47.27s-102.74-32.17-133.28-77.47c-30.55-45.3-10.74-58.68-10.74-58.68Z"/><path class="cls-20" d="M1524.04,720.64c20.97,12.57,51.36,30.29,84.99,48.3,0,0,.02,.01,.03,.02,2.42,1.54,157.91,100.22,202.51,105.96,0,0,.03,0,.09,0,2.26,.29,5.72,.46,10.24,.54,52.15,2.67,286.89,13.7,359.08,.04,31.21-5.9,52.31-15.11,66.48-24.22,28.09-1.98,53.42-3.78,74.29-5.3v-33.94s-25.1,1.92-53.48,8.93c-1.19,.3-2.4,.6-3.61,.92-16.15,4.2-33.05,10.06-46.78,18.14-1.4,.83-3.17,1.63-5.26,2.39-53.92,19.77-327.34,19.33-394.16,12.75-2.63-.26-4.93-.53-6.9-.8-13.28-1.88-37.52-10.96-66.48-23.59-39.33-17.15-87.4-40.82-128.65-61.83-50.58-25.75-90.91-47.5-92.4-48.3Z"/><path class="cls-12" d="M2255,679.08s-39.75-65.18-130.54-54.72c-90.79,10.46-132.72,17.83-166.97,4.98-34.25-12.86,20.83,25.17,83.77,21.9,62.95-3.28,143.55-22.66,213.73,27.85Z"/><path class="cls-12" d="M1880.44,744.34s-68.86,13.75-123.99-7.6c-91.84-35.56-193.29-74.52-193.29-74.52,0,0,176.02,78.75,193.29,86.77,17.27,8.01,83.47,22.12,123.99-4.65Z"/><g><polygon points="1288.85 198.27 1446.68 198.27 1446.68 145.48 1288.85 145.48 1288.85 100.18 1177.16 171.88 1288.85 243.57 1288.85 198.27"/><polygon points="1492.43 352.61 1380.74 280.92 1380.74 326.22 1222.92 326.22 1222.92 379 1380.74 379 1380.74 424.3 1492.43 352.61"/></g><rect class="cls-13" x="637.2" y="743.66" width="169.57" height="5.33"/><g><path class="cls-22" d="M328.15,696.93s35.07-131.95,270.48-71.04c0,0,43.21-.42,118-22.15,40.69-11.83,66.96-22.33,66.96-22.33,0,0,40.97-8.93,33.77,39.84-9.48,64.18-132.75,106.8-205.97,125.62-12.08,3.1-47.1,16.49-47.1,16.49l-236.14-66.43Z"/><path class="cls-6" d="M783.6,581.42s18.09,1.57,19.9,17.13c1.81,15.56-8.68,23.88-22.79,32.2l-15.19,5.95-22.43-40.57,40.52-14.7Z"/><path class="cls-8" d="M765.51,636.69s.72-38.15-15.56-43.57l-6.87,3,22.43,40.57Z"/></g><g><path class="cls-22" d="M990.96,768.94s-.02,.01-.03,.02c-2.42,1.54-157.91,100.22-202.51,105.96,0,0-.03,0-.09,0-2.26,.29-5.72,.46-10.24,.54-56.44,.92-278.76-13.86-425.56-24.18-28.09-1.98-53.42-3.78-74.29-5.3-36.65-2.64-59.55-4.35-59.55-4.35l7.2-1.32,52.36-9.57,46.66-8.53h.01l6.8-1.24,284.66-52.04h374.58Z"/><path class="cls-22" d="M788.42,874.93s-.03,0-.09,0c-.61,.03-4.21,.23-10.24,.54-52.15,2.67-286.89,13.7-359.08,.04-31.21-5.9-52.31-15.11-66.48-24.22-4.98-3.2-9.1-6.39-12.5-9.42-12.17-10.85-15.12-19.64-15.12-19.64h.01l10.41-.33,429.87-13.47,12.09,34.62,4.23,12.13,6.9,19.75Z"/><g><path class="cls-22" d="M1119.43,676.57c-.4,1.37-.86,2.72-1.37,4.05-4.68,12.3-13.49,22.58-24.72,29.47-2.55,1.56-5.48,3.35-8.75,5.33l-1.32,.8c-1.52,.92-3.1,1.88-4.76,2.87l-2.53,1.52h0s-.02,.01-.04,.02c-20.97,12.57-51.36,30.29-84.99,48.3,0,0-.02,.01-.03,.02-44.43,23.8-94.52,48.12-136.03,61.81-17.76,5.87-33.96,9.78-47.47,10.87-7.09,.57-17.31,1.03-30.14,1.4-76.09,2.19-243.7,1.03-389.92-.62-16.09-.18-31.92-.37-47.34-.56-21.53-.27-42.25-.54-61.78-.8-18.67-.25-36.24-.5-52.36-.74-60.75-.88-100.72-1.56-100.72-1.56v-173.54s156.79,23.02,215.64,6.66c58.84-16.35,53.9-21.29,53.9-21.29l162.55,62.56,240.8,25.75s220.68-99.7,286.91-96.42c35.48,1.76,38.98,18.64,34.46,34.08Z"/><path class="cls-6" d="M1119.43,676.57c-.4,1.37-.86,2.72-1.37,4.05-4.68,12.3-13.49,22.58-24.72,29.47-4.62,2.84-10.48,6.4-17.35,10.52l-19.27-32.35,14.47-9.12c32.2-19.62,48.23-2.57,48.23-2.57Z"/><path class="cls-8" d="M1056.73,688.27s20.66,13.44,27.87,27.16l-8.61,5.19-19.27-32.35Z"/></g></g><polygon class="cls-20" points="271.16 677.7 271.16 845.48 285.33 846.5 285.33 677.64 271.16 677.7"/><path class="cls-5" d="M262.48,631.6h-105.82c-4.78,0-8.68,3.91-8.68,8.68v241.33c0,4.78,3.91,8.68,8.68,8.68h105.82c4.78,0,8.68-3.91,8.68-8.68v-241.33c0-4.78-3.91-8.68-8.68-8.68Z"/><path class="cls-10" d="M147.97,881.62c0,4.78,3.91,8.68,8.68,8.68h105.82c4.78,0,8.68-3.91,8.68-8.68v-127.79h-123.19v127.79Z"/><path class="cls-1" d="M208.21,616.02v289.85c0,7.32-5.94,13.26-13.26,13.26H0v-316.36H194.95c7.31,0,13.26,5.93,13.26,13.26Z"/><path class="cls-23" d="M208.21,760.95v144.93c0,7.32-5.94,13.26-13.26,13.26H0v-158.18H208.21Z"/><circle class="cls-9" cx="139.05" cy="855.79" r="31.84" transform="translate(-316.91 118.36) rotate(-22.5)"/><path class="cls-20" d="M814.44,593.12s6.06,64.34-71.36,95.15c-77.42,30.81-191.01,62.95-220.68,88.27l148.01-47.27s102.74-32.17,133.28-77.47c30.55-45.3,10.74-58.68,10.74-58.68Z"/><path class="cls-20" d="M1075.96,720.64c-20.97,12.57-51.36,30.29-84.99,48.3,0,0-.02,.01-.03,.02-2.42,1.54-157.91,100.22-202.51,105.96,0,0-.03,0-.09,0-2.26,.29-5.72,.46-10.24,.54-52.15,2.67-286.89,13.7-359.08,.04-31.21-5.9-52.31-15.11-66.48-24.22-28.09-1.98-53.42-3.78-74.29-5.3v-33.94s25.1,1.92,53.48,8.93c1.19,.3,2.4,.6,3.61,.92,16.15,4.2,33.05,10.06,46.78,18.14,1.4,.83,3.17,1.63,5.26,2.39,53.92,19.77,327.34,19.33,394.16,12.75,2.63-.26,4.93-.53,6.9-.8,13.28-1.88,37.52-10.96,66.48-23.59,39.33-17.15,87.4-40.82,128.65-61.83,50.58-25.75,90.91-47.5,92.4-48.3Z"/><path class="cls-12" d="M345,679.08s39.75-65.18,130.54-54.72c90.79,10.46,132.72,17.83,166.97,4.98,34.25-12.86-20.83,25.17-83.77,21.9-62.95-3.28-143.55-22.66-213.73,27.85Z"/><path class="cls-12" d="M719.56,744.34s68.86,13.75,123.99-7.6c91.84-35.56,193.29-74.52,193.29-74.52,0,0-176.02,78.75-193.29,86.77-17.27,8.01-83.47,22.12-123.99-4.65Z"/><path class="cls-2" d="M1905.89,585.38v-22.47c-15.85-.71-31.22-4.97-40.21-10.17l7.1-27.68c9.93,5.44,23.89,10.41,39.27,10.41,13.48,0,22.71-5.2,22.71-14.67s-7.57-14.67-25.07-20.58c-25.31-8.52-42.58-20.34-42.58-43.29,0-20.82,14.67-37.14,39.98-42.1v-22.47h23.18v20.82c15.85,.71,26.49,4.02,34.3,7.81l-6.86,26.73c-6.15-2.6-17.03-8.04-34.06-8.04-15.38,0-20.34,6.62-20.34,13.25,0,7.81,8.28,12.77,28.38,20.34,28.15,9.93,39.5,22.94,39.5,44.23s-14.9,39.03-42.1,43.76v24.13h-23.18Z"/></svg>